# xmcd CD database file
#
# Track frame offsets:
#	150
#	13633
#	27891
#	40317
#	54699
#	67858
#	80369
#	93358
#	107058
#	122339
#	136036
#	145223
#	160058
#	173052
#	186429
#	200099
#
# Disc length: 2823 seconds
#
# Revision: 1
# Processed by: cddbd v1.5.2PL0 Copyright (c) Steve Scherf et al.
# Submitted via: CDex 1.79
#
DISCID=d00b0510
DTITLE=Justin Trevino - Loud Music And Strong Wine
DYEAR=2000
DGENRE=Country
TTITLE0=Loud Music And Strong Wine
TTITLE1=One More Drink And Then I'll Go (featuring Johnny Bush)
TTITLE2=My Heart Has Finally Said Goodbye
TTITLE3=Two Arms Two Lips Too Lonely To Long
TTITLE4=Teardrops Don`t Lie
TTITLE5=You`d Be Home By Now (featuring Leona Williams)
TTITLE6=Somebody`s Old Memory Is Mine
TTITLE7=To Safe My Wife
TTITLE8=I Only Make You Happy When I Cry
TTITLE9=She Went A Little Bit Farther (featuring Jake Hooker)
TTITLE10=I`d Know You Anywhere
TTITLE11=Your Memory Against Me
TTITLE12=Undo The Right (featuring Jake Hooker)
TTITLE13=If I Ever Need A Lady
TTITLE14=Torn Between Love And Desire
TTITLE15=Odds And Ends (featuring Curtis Potter)
EXTD=YEAR: 2000
EXTT0=
EXTT1=
EXTT2=
EXTT3=
EXTT4=
EXTT5=
EXTT6=
EXTT7=
EXTT8=
EXTT9=
EXTT10=
EXTT11=
EXTT12=
EXTT13=
EXTT14=
EXTT15=
PLAYORDER=
